<?xml version="1.0" encoding="utf-8"?>
<!-- Generator: Adobe Illustrator 22.1.0, SVG Export Plug-In . SVG Version: 6.00 Build 0)  -->
<svg version="1.1" id="Layer_1" xmlns="http://www.w3.org/2000/svg" xmlns:xlink="http://www.w3.org/1999/xlink" x="0px" y="0px"
	 viewBox="0 0 165.6 177.1" style="enable-background:new 0 0 165.6 177.1;" xml:space="preserve">
<style type="text/css">
	.st0{display:none;fill:#020202;}
	.st1{display:none;fill:none;stroke:#020202;stroke-width:11;stroke-linecap:round;stroke-miterlimit:10;}
	.st2{display:none;fill:none;stroke:#020202;stroke-miterlimit:10;}
	.st3{fill:none;stroke:#020202;stroke-width:11;stroke-linecap:round;stroke-miterlimit:10;}
</style>
<path class="st0" d="M106-10.1l-2.8-1.1C98.7,4,92.1,26.2,85,49.4c-1.1,0.4-1.9,1.5-1.9,2.8c0,0.5,0.1,0.9,0.3,1.3
	C67.4,93.1,50.9,133,47,139.6l-17.9-2.7v3l17.5,2.7l6,27.9l9.1,5.9l1.6-2.5l-8-5.3l-5.9-27.3C53.3,135,69.9,95,85.9,55.2
	c0.1,0,0.1,0,0.1,0c1.7,0,3-1.3,3-3c0-0.9-0.4-1.8-1.1-2.3C95,26.9,101.5,5.1,106-10.1z"/>
<path class="st0" d="M143.2,158.7l-9.8-0.6l-21-15.1l12.3-89c1.6-0.2,2.8-1.6,2.6-3.2c-0.1-1.6-1.5-2.8-3-2.7l-16.8-59.2l-2.9,0.8
	l17.1,60c-0.2,0.5-0.4,1-0.3,1.6c0,0.5,0.2,1,0.5,1.4l-12.4,89.8l-15.6,9.7l1.4,2.6l15.2-9.5l21.8,15.8l11.1,0.6L143.2,158.7z"/>
<polyline class="st1" points="86.1,5.5 66.4,62.3 24.5,141 "/>
<polyline class="st2" points="105.6,-10.3 123.6,50.7 110.6,143.7 "/>
<polyline class="st1" points="5.5,141.8 23.7,142.4 32.6,167.2 42.2,171.6 "/>
<polyline id="right_leg" class="st3" points="87.7,5.9 117.3,60.1 124.5,151.3 "/>
<path id="right_foot" class="st3" d="M111.8,163.1c1-0.2,12.7-11.8,12.7-11.8l24.9,10.4l10.7-2.4"/>
</svg>
